<svg xmlns="http://www.w3.org/2000/svg" xmlns:xlink="http://www.w3.org/1999/xlink" width="118.205" height="151.671" viewBox="0 0 118.205 151.671">
  <defs>
    <filter id="Path_206" x="5" y="0" width="108.868" height="120.135" filterUnits="userSpaceOnUse">
      <feOffset dy="3" input="SourceAlpha"/>
      <feGaussianBlur stdDeviation="5" result="blur"/>
      <feFlood flood-color="#3a3b61" flood-opacity="0.239"/>
      <feComposite operator="in" in2="blur"/>
      <feComposite in="SourceGraphic"/>
    </filter>
    <filter id="Shape" x="30.809" y="37.414" width="57.081" height="30.04" filterUnits="userSpaceOnUse">
      <feOffset dy="1" input="SourceAlpha"/>
      <feGaussianBlur stdDeviation="0.5" result="blur-2"/>
      <feFlood flood-color="#010226" flood-opacity="0.239"/>
      <feComposite operator="in" in2="blur-2"/>
      <feComposite in="SourceGraphic"/>
    </filter>
  </defs>
  <g id="big_logo" data-name="big logo" transform="translate(-375.078 -226.759)">
    <g id="Group_583" data-name="Group 583" transform="translate(357.078 220.028)">
      <g id="Group_582" data-name="Group 582" transform="translate(38 18.731)">
        <g id="Logo" transform="translate(0 0)">
          <g transform="matrix(1, 0, 0, 1, -20, -12)" filter="url(#Path_206)">
            <path id="Path_206-2" data-name="Path 206" d="M39.434,0a39.532,39.532,0,0,1,8.332,78.154c-2.442.552-5.349,11.98-8.332,11.98-3.31,0-6.525-11.505-9.9-12.351A39.534,39.534,0,0,1,39.434,0Z" transform="translate(20 12)" fill="#2d83b6"/>
          </g>
          <g id="Group_581" data-name="Group 581" transform="translate(12.309 25.914)">
            <g transform="matrix(1, 0, 0, 1, -32.31, -37.91)" filter="url(#Shape)">
              <path id="Shape-2" data-name="Shape" d="M52.893,9.435,27.659.11a1.792,1.792,0,0,0-1.231,0L1.2,9.435a1.887,1.887,0,0,0,0,3.509L13.524,17.5v5.814c0,3.625,12.139,3.73,13.523,3.73s13.523-.1,13.523-3.73V17.5l2.7-.993v2.145a1.835,1.835,0,0,0,1.8,1.865h1.8a1.835,1.835,0,0,0,1.8-1.865v-2.8a2.835,2.835,0,0,0-.294-1.241L52.9,12.944a1.887,1.887,0,0,0,0-3.509ZM38.767,21.26c-3.434-1.617-10.67-1.678-11.72-1.678s-8.286.062-11.72,1.678V13.137c.541-.718,4.793-1.947,11.72-1.947s11.179,1.229,11.72,1.947Zm-11.72,3.916c-6.671,0-10.861-1.139-11.644-1.865.783-.725,4.975-1.865,11.644-1.865s10.861,1.139,11.644,1.865C37.908,24.037,33.718,25.176,27.047,25.176ZM43.7,14.365,40.57,15.518V13.054c0-3.625-12.139-3.73-13.523-3.73s-13.523.1-13.523,3.73v2.463L1.8,11.19,27.059,1.865l18.018,6.66v4.7a2.728,2.728,0,0,0-1.38,1.139Zm3.183,4.285h-1.8v-2.8a.9.9,0,1,1,1.8,0Zm0-5.46v-4l5.409,2Z" transform="translate(32.3 37.91)" fill="#fff"/>
            </g>
            <path id="Shape-3" data-name="Shape" d="M38.565,21.051c-3.434-1.617-10.67-1.678-11.72-1.678s-8.286.062-11.72,1.678V12.927c.541-.718,4.793-1.947,11.72-1.947s11.179,1.229,11.72,1.947Zm-11.72,3.916c-6.671,0-10.861-1.139-11.644-1.865.783-.725,4.975-1.865,11.644-1.865S37.706,22.377,38.489,23.1C37.706,23.827,33.516,24.967,26.845,24.967ZM43.5,14.155l-3.127,1.153V12.845c0-3.625-12.139-3.73-13.523-3.73s-13.523.1-13.523,3.73v2.463L1.6,10.98,26.858,1.655l18.018,6.66v4.7a2.728,2.728,0,0,0-1.38,1.139Zm3.183,4.285h-1.8v-2.8a.9.9,0,1,1,1.8,0Zm0-5.46v-4l5.409,2Z" transform="translate(0.194 0.209)" fill="#2d83b6"/>
          </g>
        </g>
        <path id="Path_207" data-name="Path 207" d="M1.26.356H7.888V-1.3H3.63V-7.369H7.049V-9H3.63V-14.48H7.846V-16.2H1.26Zm8.558,0h2.244V-16.2H9.818Zm4.489-5.334h4.678V-6.633H14.307ZM25.678.56a2.967,2.967,0,0,0,3.02-2.1l.231,1.9h1.489V-7.839h-4.3V-6.2h2.16V-5.06c0,2.493-.461,3.781-2.307,3.781-1.867,0-2.286-1.165-2.286-3.556v-6.131c0-2.044.126-3.576,2.223-3.576,1.909,0,2.16.981,2.16,3.127v.511h2.223v-.613c0-3.27-1.238-4.823-4.426-4.823-3.587,0-4.552,2.1-4.552,5.722V-5.08C21.316-1.5,22.49.56,25.678.56Zm6.251-.2h2.223l.818-4.169h3.461L39.208.356h2.244L37.823-16.2H35.537Zm3.356-5.824,1.405-7.459,1.426,7.459ZM43.13.356h1.93l.189-12.016L48.1.356h1.342L52.317-11.66,52.506.356h1.909L54.1-16.2H51.793L48.773-2.771l-3-13.426H43.445ZM60.687.54c3,0,4.2-1.921,4.2-4.864,0-2.248-.9-3.678-2.433-4.148a3.4,3.4,0,0,0,2.433-3.617c0-2.636-1.384-4.251-4.174-4.251s-4.174,1.594-4.174,4.23v.552h2.223v-.347c.042-1.553.4-2.657,1.951-2.657,1.531,0,1.93.981,1.93,2.473,0,1.778-.65,2.473-2.244,2.514H60.1v2.187a1.628,1.628,0,0,1,.315.02c1.657.1,2.223,1.308,2.223,3.045,0,1.819-.336,3.045-1.951,3.045-1.552,0-1.888-1.124-1.93-2.616v-.368H56.533v.552C56.533-1.075,57.918.54,60.687.54ZM66.1.356h2.223l.818-4.169H72.6L73.377.356h2.244L71.992-16.2H69.706Zm3.356-5.824,1.405-7.459,1.426,7.459Z" transform="translate(0.994 115.488)" fill="#2d83b6"/>
      </g>
    </g>
    <path id="Path_210" data-name="Path 210" d="M-56.329.924a5.373,5.373,0,0,1-.49-.231,2.4,2.4,0,0,1-.532-.385,1.653,1.653,0,0,1-.392-.574,3.95,3.95,0,0,1-.189-.8,6.1,6.1,0,0,1-.035-.91,6.7,6.7,0,0,1,.1-1.267,6.1,6.1,0,0,1,.329-1.1,1.745,1.745,0,0,0,.1-.245q.077-.2.182-.441l.161-.364q.112-.238.343-.637t.5-.777q.406-.6.686-.987a5.966,5.966,0,0,1,.539-.651,6.241,6.241,0,0,1,.574-.518q.315-.252.791-.574a1.645,1.645,0,0,1,.791-.28,1.8,1.8,0,0,1,.945.147,1.315,1.315,0,0,1,.686.763,1.47,1.47,0,0,1,.14.735,3.559,3.559,0,0,1-.168.938,5.021,5.021,0,0,1-.392.931,2.653,2.653,0,0,1-.532.7.439.439,0,0,1-.483.056,1.477,1.477,0,0,1-.5-.294,1.779,1.779,0,0,1-.133-.28q-.007-.042.049-.056a2.542,2.542,0,0,0,.224-.336q.14-.238.28-.511a3.356,3.356,0,0,0,.2-.441q.112-.588.154-.777a.32.32,0,0,0-.084-.315A.182.182,0,0,0-52.64-8.6a1.228,1.228,0,0,0-.343.14,2.8,2.8,0,0,0-.763.567,8.13,8.13,0,0,0-.875,1.015q-.56.742-.938,1.316a4.889,4.889,0,0,0-.574,1.176q-.028.056-.091.21l-.063.154a.78.78,0,0,1-.042.273,2.283,2.283,0,0,1-.126.371,6.681,6.681,0,0,0-.182,1.239A3.746,3.746,0,0,0-56.56-1.1a1.348,1.348,0,0,0,.315.651.623.623,0,0,0,.462.084,2.731,2.731,0,0,0,.644-.2q.364-.154.784-.336a4.738,4.738,0,0,0,.616-.308,2.818,2.818,0,0,0,.42-.294,2.094,2.094,0,0,1,.287-.175.678.678,0,0,1,.3-.091.217.217,0,0,1,.294.112.968.968,0,0,1,.1.462.765.765,0,0,1-.28.476,3.021,3.021,0,0,1-.616.476,1.092,1.092,0,0,1-.3.2,3.948,3.948,0,0,1-.385.161,4.282,4.282,0,0,1-.728.434,4.616,4.616,0,0,1-.875.322A1.845,1.845,0,0,1-56.329.924ZM-50.393-.1a.512.512,0,0,1-.287-.07q-.1-.07-.259-.2a2.49,2.49,0,0,1-.427-.6.917.917,0,0,1-.119-.56.517.517,0,0,0,.035-.217l-.007-.105q-.07-.07-.042-.091a.218.218,0,0,0,.056-.077q.084,0,.056-.154a1.163,1.163,0,0,1,.091-.483,3.138,3.138,0,0,1,.329-.707q.084-.14.252-.371t.371-.462a3.456,3.456,0,0,1,.371-.371,5.274,5.274,0,0,1,.651-.476,2.057,2.057,0,0,1,.609-.252,2.866,2.866,0,0,1,.637-.07.706.706,0,0,1,.539.224.912.912,0,0,1,.455.378,1.634,1.634,0,0,1,.175.616,3.491,3.491,0,0,1-.084,1.029,3.974,3.974,0,0,1-.686,1.407,3.95,3.95,0,0,1-.686.784,5.5,5.5,0,0,1-.742.518,1.447,1.447,0,0,1-.63.238Q-50.071-.126-50.393-.1Zm1.428-1.708a1.575,1.575,0,0,0,.441-.588q.133-.322.287-.756a.654.654,0,0,0,.077-.28,2.13,2.13,0,0,0,.007-.385q-.014-.189-.1-.217a.246.246,0,0,0-.252-.049,1.592,1.592,0,0,0-.322.189,5.306,5.306,0,0,0-.777.805,2.676,2.676,0,0,0-.5,1.113.771.771,0,0,0,.077.525.322.322,0,0,0,.392.1A1.766,1.766,0,0,0-48.965-1.806Zm3.276,1.96a.463.463,0,0,1-.476-.147,1.248,1.248,0,0,1-.294-.637,2.3,2.3,0,0,1,.028-.938,2.492,2.492,0,0,0,.112-.329,1.082,1.082,0,0,0,.042-.259q.028-.14.112-.413t.182-.567q.1-.294.189-.525t.119-.287q.056,0,.1-.1a.494.494,0,0,0,.042-.2.772.772,0,0,1,.049-.252.532.532,0,0,1,.1-.2.457.457,0,0,1,.035-.161A.435.435,0,0,0-45.311-5a.21.21,0,0,1,.035-.112.21.21,0,0,0,.035-.112q.1-.182.259-.581t.35-.889q.189-.49.357-.966T-44-8.463a2.125,2.125,0,0,0,.1-.4.317.317,0,0,1,.084-.21.252.252,0,0,1,.2-.1.375.375,0,0,1,.2-.063,1.889,1.889,0,0,1,.21-.021l.056.056.168.168a1.986,1.986,0,0,1,.217.224.445.445,0,0,1,.1.294,1.244,1.244,0,0,1-.049.35,4,4,0,0,1-.175.455q-.126.287-.392.847-.112.28-.238.525a1.094,1.094,0,0,0-.126.3.474.474,0,0,1-.049.168q-.049.112-.105.28-.056.112-.154.329t-.2.462q-.1.245-.175.42a1.087,1.087,0,0,0-.07.2.9.9,0,0,1-.007.112.2.2,0,0,1-.063.112q-.056,0-.063.077l-.007.077a3.327,3.327,0,0,1-.224.742q-.224.77-.413,1.414A3.889,3.889,0,0,0-45.367-.6a1.048,1.048,0,0,1-.1.518A.577.577,0,0,1-45.689.154Zm2.268-.49a1.8,1.8,0,0,1-.308-.245A.452.452,0,0,1-43.9-.9a3.1,3.1,0,0,1,.056-.525q.056-.315.112-.539.028-.252.077-.511a1.392,1.392,0,0,1,.189-.483q.154-.532.322-1.057t.294-1.085q.182-.518.329-.917t.371-1.015a6.436,6.436,0,0,0,.217-.749,2.4,2.4,0,0,1,.287-.721q.084-.126.133-.217t.1-.175q.014-.056.147-.1a1.1,1.1,0,0,1,.28-.049.233.233,0,0,1,.2.063q.042-.014.14.105a2.429,2.429,0,0,1,.189.266.369.369,0,0,1,.077.231.784.784,0,0,1-.021.154.523.523,0,0,1-.077.182.565.565,0,0,0-.105.161q-.049.105-.147.287-.056.182-.1.371a1.74,1.74,0,0,1-.112.343,2.455,2.455,0,0,1-.133.322,1.549,1.549,0,0,0-.1.252,5.98,5.98,0,0,1-.231.63,5.185,5.185,0,0,0-.231.658q-.1.336-.2.693a2.975,2.975,0,0,1-.28.679,1.074,1.074,0,0,0-.14.392l-.084.476q-.084.252-.147.469a1.417,1.417,0,0,0-.063.273,4.124,4.124,0,0,0-.119.609,1.574,1.574,0,0,1-.147.525.9.9,0,0,1-.1.308.612.612,0,0,1-.217.252A.29.29,0,0,1-43.421-.336Zm3.374.14a1.08,1.08,0,0,1-.294.021,1.472,1.472,0,0,1-.315-.042q-.133-.035-.133-.077a.062.062,0,0,0-.07-.07l-.154-.119a1.407,1.407,0,0,0-.28-.175,1.1,1.1,0,0,1-.161-.455,2.608,2.608,0,0,1,.161-.917,2.366,2.366,0,0,1,.252-.945,5.55,5.55,0,0,1,.6-.973,7.1,7.1,0,0,1,.756-.847,4.1,4.1,0,0,1,.7-.553.758.758,0,0,1,.525-.21,1.079,1.079,0,0,1,.581.126,1.014,1.014,0,0,1,.308.28q.168.21.322.441a3.124,3.124,0,0,1,.238.413q.042.154.077.273a1.459,1.459,0,0,1,.049.287,2.662,2.662,0,0,1-.028.5q-.07.252-.119.511a2.818,2.818,0,0,0-.049.525.518.518,0,0,0,.063.378q.091.112.273.014a.435.435,0,0,1,.35-.021.428.428,0,0,1,.259.224.469.469,0,0,1-.049.413,1.125,1.125,0,0,1-.266.35,1.59,1.59,0,0,1-.406.273,1.02,1.02,0,0,1-.434.105A.5.5,0,0,1-37.6-.581a1.168,1.168,0,0,1-.28-.329,2.321,2.321,0,0,1-.21-.462l-.084-.322-.5.462q-.182.2-.357.357a1.366,1.366,0,0,0-.217.231.593.593,0,0,1-.273.224Q-39.725-.322-40.047-.2Zm.378-1.344a1.714,1.714,0,0,0,.413-.336,4.383,4.383,0,0,0,.343-.441q.168-.245.364-.525a4.579,4.579,0,0,0,.343-.518,1.821,1.821,0,0,0,.161-.42,2.262,2.262,0,0,0-.154-.329q-.1-.175-.2-.189a.781.781,0,0,0-.469.238,4.067,4.067,0,0,0-.6.686,1.637,1.637,0,0,0-.14.224q-.084.154-.161.287t-.1.175a1.285,1.285,0,0,0-.119.259q-.077.2-.133.406a1.27,1.27,0,0,0-.056.287.872.872,0,0,0,.021.182.162.162,0,0,0,.133.126A.542.542,0,0,0-39.669-1.54Zm5.95,4.3a1.043,1.043,0,0,1-.651.056,2.662,2.662,0,0,1-.784-.273,2.2,2.2,0,0,1-.623-.469A1.5,1.5,0,0,1-36,1.736a1.293,1.293,0,0,1-.126-.371q-.028-.175.07-.231a.53.53,0,0,1,.3-.084,1.024,1.024,0,0,1,.308.042q.133.042.133.1a3.313,3.313,0,0,0,.3.245,1.379,1.379,0,0,0,.287.161.513.513,0,0,0,.357.035.726.726,0,0,0,.3-.189,1.737,1.737,0,0,0,.2-.385,2.932,2.932,0,0,0,.147-.525l.042-.182q.154-.7.3-1.323t.245-.9a.23.23,0,0,0-.07.014.353.353,0,0,0-.084.042l-.168.084-.168.084a2.3,2.3,0,0,1-.322.147q-.14.049-.252.077a.654.654,0,0,1-.266.042A.88.88,0,0,0-34.6-1.4a1.026,1.026,0,0,1-.364-.091,1.261,1.261,0,0,1-.378-.231.823.823,0,0,1-.182-.259.959.959,0,0,1-.07-.287q-.014-.154-.014-.308a2.407,2.407,0,0,1,.224-.749,4.111,4.111,0,0,1,.658-1.057,3.793,3.793,0,0,1,.7-.532,6.393,6.393,0,0,1,.889-.455,2.057,2.057,0,0,1,.749-.189.759.759,0,0,1,.133.014.329.329,0,0,1,.147.07,1.149,1.149,0,0,1,.476.259,1.926,1.926,0,0,1,.42.525,3.065,3.065,0,0,1,.189.476,1.811,1.811,0,0,1,.077.532.885.885,0,0,1-.077.385q-.077.161-.147.189a.125.125,0,0,1-.07.035q-.042.007-.1.021a.458.458,0,0,0-.112.028.467.467,0,0,0-.161.147,1.166,1.166,0,0,0-.147.357l-.028.14a.8.8,0,0,1-.042.14.172.172,0,0,1-.035.063.3.3,0,0,0-.049.119.468.468,0,0,1-.049.161,1.162,1.162,0,0,0-.063.133.393.393,0,0,0-.014.091v.063l-.056.154q-.042.14-.077.252a.694.694,0,0,0-.035.14l-.056.28q-.028.154-.063.308t-.063.294q-.028.14-.07.28a9.574,9.574,0,0,1-.623,1.862A1.76,1.76,0,0,1-33.719,2.758Zm-.826-5.432q.028.308.518.259A2.059,2.059,0,0,0-32.935-3a2.594,2.594,0,0,0,.427-.448,1.5,1.5,0,0,0,.259-.518.544.544,0,0,0,.035-.315q-.035-.091-.245-.105a1.472,1.472,0,0,0-.567.119,3.774,3.774,0,0,0-.609.329,1.132,1.132,0,0,1-.308.322.352.352,0,0,1-.161.063q-.035-.007.021.021a.915.915,0,0,1-.056.1l-.056.084a1.749,1.749,0,0,1-.168.238.971.971,0,0,0-.133.2A.528.528,0,0,0-34.545-2.674Zm5.026,2.548a1.321,1.321,0,0,1-.756-.728A2.723,2.723,0,0,1-30.387-2.2a1.643,1.643,0,0,0-.028-.581.766.766,0,0,0-.21-.287,1.564,1.564,0,0,0-.2-.189q-.154-.133-.14-.2a.509.509,0,0,1,.042-.245q.056-.147.1-.161.1-.042.2-.1a.183.183,0,0,1,.161-.028.411.411,0,0,1,.175.07q.119.07.119.126.056.1.175-.084a4.7,4.7,0,0,0,.259-.462,2.092,2.092,0,0,1,.35-.42,4.945,4.945,0,0,1,.427-.357,3.312,3.312,0,0,1,.371-.245q.07-.028.273-.084a3.827,3.827,0,0,1,.427-.091,1.318,1.318,0,0,1,.336-.021,1.042,1.042,0,0,1,.532.21,2.676,2.676,0,0,1,.434.364.626.626,0,0,1,.245.385,1.873,1.873,0,0,1,.049.539,1.192,1.192,0,0,1-.112.476,1.147,1.147,0,0,1-.294.392,5.615,5.615,0,0,1-.553.483,2.3,2.3,0,0,1-.511.315,3.1,3.1,0,0,1-.434.063,2.62,2.62,0,0,1-.469,0,.954.954,0,0,1-.3-.063.109.109,0,0,0-.161.035,1.335,1.335,0,0,0-.1.483.98.98,0,0,0,.007.266.672.672,0,0,0,.049.168.862.862,0,0,0,.2.245.528.528,0,0,0,.364.049.887.887,0,0,0,.539-.329,4.664,4.664,0,0,1,.5-.483.335.335,0,0,1,.245-.133,1.058,1.058,0,0,1,.455.035.325.325,0,0,1,.147.308,1.566,1.566,0,0,1-.231.616,1.131,1.131,0,0,1-.231.287q-.189.189-.406.378a2.708,2.708,0,0,1-.357.273,1.624,1.624,0,0,1-.826.21A2.33,2.33,0,0,1-29.519-.126Zm1.036-3.15a3.69,3.69,0,0,0,.357-.112.924.924,0,0,0,.287-.182,2.447,2.447,0,0,0,.322-.378.979.979,0,0,0,.063-.266q.007-.112-.021-.14a.243.243,0,0,0-.245-.077.883.883,0,0,0-.287.147,1.458,1.458,0,0,0-.273.175,3.294,3.294,0,0,0-.336.294,2.135,2.135,0,0,0-.252.294q-.091.133-.035.161-.028.056.161.07T-28.483-3.276ZM-14.343.672q-.056.056-.266.035a.448.448,0,0,1-.336-.2,1.132,1.132,0,0,1-.112-.448q-.014-.252,0-.7.084-.49.28-1.288t.441-1.785q.245-.987.5-2.023.126-.49.2-.826t.112-.511l.035-.175a.368.368,0,0,1-.035.056.368.368,0,0,0-.035.056l-.028.056-.049.1q-.049.1-.2.336a2.548,2.548,0,0,0-.21.392,4.322,4.322,0,0,1-.336.588q-.224.42-.5.966t-.476.868q-.1.154-.175.266a1.01,1.01,0,0,0-.1.182,2.662,2.662,0,0,1-.182.378,3.228,3.228,0,0,1-.294.434q-.084.126-.217.294t-.231.3l-.1.133a1.015,1.015,0,0,1-.182.266q-.154.182-.371.4a5.772,5.772,0,0,1-.441.4,2.723,2.723,0,0,1-.805.49.785.785,0,0,1-.721-.238,2.35,2.35,0,0,1-.294-.455,1.485,1.485,0,0,1-.112-.637,6.432,6.432,0,0,1,.14-1.134q.1-.462.217-.98t.245-1q.126-.483.231-.84t.147-.5a.97.97,0,0,0,.014-.371q-.028-.021-.14.161-.1.154-.364.644T-19.7-4.494q-.329.658-.637,1.316Q-20.909-2.114-21.3-1.4t-.644,1.141q-.252.427-.385.644t-.2.308a1.013,1.013,0,0,1-.091.119.511.511,0,0,1-.364-.2,1.516,1.516,0,0,1-.252-.434,2.785,2.785,0,0,1-.042-.294,1.009,1.009,0,0,1,.035-.343,2.134,2.134,0,0,1,.161-.413,5.789,5.789,0,0,1,.35-.616q.168-.252.21-.308A.909.909,0,0,0-22.407-2a1.008,1.008,0,0,0,.056-.21,2.632,2.632,0,0,0,.217-.35q.147-.266.3-.574.112-.182.308-.511t.42-.714q.224-.385.392-.707.616-1.106.98-1.771a6.31,6.31,0,0,1,.518-.847.585.585,0,0,0,.175-.273,2.275,2.275,0,0,1,.133-.3,3.852,3.852,0,0,1,.4-.651q.2-.259.357-.259a.7.7,0,0,1,.287.084,1.422,1.422,0,0,1,.343.238,2,2,0,0,1,.287.483,1.388,1.388,0,0,1,.049.791,4.9,4.9,0,0,1-.07.539q-.056.315-.112.623t-.112.518q-.112.63-.245,1.2l-.245,1.043q-.112.476-.182.833t-.091.581a.382.382,0,0,0,.049.294.152.152,0,0,0,.119-.035.445.445,0,0,0,.119-.1q.084-.112.154-.224t.182-.28q.224-.308.469-.679t.588-.924q.343-.553.819-1.372T-14.581-7.6q.322-.49.616-.98a5.082,5.082,0,0,1,.532-.756.519.519,0,0,1,.525-.154,1.144,1.144,0,0,1,.581.35,1.071,1.071,0,0,1,.294.686,3.258,3.258,0,0,1-.077.693q-.091.5-.245,1.113t-.35,1.2q-.042.238-.14.63t-.21.8q-.112.406-.21.728-.1.476-.161.756a2.952,2.952,0,0,0-.063.644,1.684,1.684,0,0,0-.168.644q-.042.42-.042.868a1.547,1.547,0,0,1-.231.77q-.175.224-.231.21A.139.139,0,0,0-14.343.672Zm2.492-.966A.612.612,0,0,0-12.1-.518q-.189-.112-.189-.168a.44.44,0,0,0-.063-.175.746.746,0,0,0-.119-.175q-.07-.084.042-.413a8.061,8.061,0,0,1,.336-.805q.224-.476.49-.966a1.606,1.606,0,0,0,.224-.294,1.5,1.5,0,0,1,.168-.238.159.159,0,0,1,.042-.1.126.126,0,0,1,.1-.049l.112-.224a1.5,1.5,0,0,1,.175-.224q.147-.168.357-.371T-10-5.11a2.991,2.991,0,0,1,.357-.266,1,1,0,0,1,.609-.182.893.893,0,0,1,.539.2q.042.042.189.168t.336.28q.189.154.329.28l.518.462-.238.7a1.891,1.891,0,0,0-.091.98,2.718,2.718,0,0,0,.259.728A.573.573,0,0,0-7-1.526a.717.717,0,0,0,.315.112.454.454,0,0,1,.21.084.256.256,0,0,1,.1.224A.772.772,0,0,1-6.5-.623a.454.454,0,0,1-.259.175,1.872,1.872,0,0,1-.882-.1,1.542,1.542,0,0,1-.756-.8,1.9,1.9,0,0,1-.147-.315,2.385,2.385,0,0,1-.1-.3q-.056.07-.147.175t-.175.189a5.889,5.889,0,0,1-1.7,1.309A1.214,1.214,0,0,1-11.851-.294Zm.77-1.162a.571.571,0,0,0,.308-.1,4.638,4.638,0,0,0,.56-.4q.476-.406.784-.672a3.717,3.717,0,0,0,.6-.686l.308-.5a1.269,1.269,0,0,0-.252-.42A.342.342,0,0,0-9-4.34a.708.708,0,0,0-.434.231A4.382,4.382,0,0,0-10-3.437q-.315.441-.707,1.1a3.227,3.227,0,0,0-.28.6Zm9.94,1.12a1.385,1.385,0,0,1-.511-.133A.766.766,0,0,1-1.981-.9a1.722,1.722,0,0,1-.049-.469q.007-.245.035-.476a3.382,3.382,0,0,0,.028-.4v-.266q-.028-.21-.105-.259t-.259.021a5.023,5.023,0,0,0-.637.371q-.343.231-.714.532t-.763.637A5.761,5.761,0,0,0-4.9-.658a.4.4,0,0,1-.3.21.225.225,0,0,1-.238-.028q-.126-.084-.266-.2-.1-.112-.231-.287A2.021,2.021,0,0,1-6.1-1.19,2.158,2.158,0,0,1-6.062-1.6a2.144,2.144,0,0,1,.112-.378q.077-.2.189-.448.056-.1.105-.2t.119-.231A4.151,4.151,0,0,1-5.376-3.3q.105-.252.2-.476.154-.364.238-.63a4.7,4.7,0,0,0,.14-.574.1.1,0,0,1,.014-.084.125.125,0,0,1,.084-.07h.028A.527.527,0,0,1-4.3-5.159.92.92,0,0,1-3.885-5a.787.787,0,0,1,.28.658,2.375,2.375,0,0,1-.42,1.064q-.1.224-.2.413a.7.7,0,0,0-.105.259l.112-.084.266-.2q.154-.119.266-.189.07-.07.308-.259t.518-.4q.28-.21.448-.322a2.812,2.812,0,0,1,.392-.231,1.068,1.068,0,0,1,.294-.119.825.825,0,0,1,.343.1,2.212,2.212,0,0,1,.378.231.505.505,0,0,1,.2.245,1.013,1.013,0,0,1-.014.147,1.073,1.073,0,0,0-.014.161q-.014.224-.007.539t.007.63a2.622,2.622,0,0,1-.056.567l.014.021a.274.274,0,0,1,.028.063.053.053,0,0,0-.007.049l.007.035q.028.1.063.2t.091.217q.056.119.126.3a.557.557,0,0,1-.2.357A.838.838,0,0,1-1.141-.336Zm2.87.14a1.08,1.08,0,0,1-.294.021A1.472,1.472,0,0,1,1.12-.217Q.987-.252.987-.294a.062.062,0,0,0-.07-.07L.763-.483a1.407,1.407,0,0,0-.28-.175,1.1,1.1,0,0,1-.161-.455A2.608,2.608,0,0,1,.483-2.03a2.365,2.365,0,0,1,.252-.945,5.55,5.55,0,0,1,.6-.973A7.1,7.1,0,0,1,2.093-4.8a4.1,4.1,0,0,1,.7-.553.758.758,0,0,1,.525-.21,1.079,1.079,0,0,1,.581.126,1.014,1.014,0,0,1,.308.28q.168.21.322.441a3.124,3.124,0,0,1,.238.413q.042.154.077.273a1.459,1.459,0,0,1,.049.287,2.662,2.662,0,0,1-.028.5q-.07.252-.119.511A2.818,2.818,0,0,0,4.7-2.2a.518.518,0,0,0,.063.378q.091.112.273.014a.435.435,0,0,1,.35-.021.428.428,0,0,1,.259.224.469.469,0,0,1-.049.413,1.125,1.125,0,0,1-.266.35,1.59,1.59,0,0,1-.406.273,1.02,1.02,0,0,1-.434.105.5.5,0,0,1-.308-.119A1.168,1.168,0,0,1,3.9-.91a2.321,2.321,0,0,1-.21-.462L3.6-1.694l-.5.462q-.182.2-.357.357a1.366,1.366,0,0,0-.217.231.593.593,0,0,1-.273.224Q2.051-.322,1.729-.2ZM2.107-1.54a1.714,1.714,0,0,0,.413-.336,4.383,4.383,0,0,0,.343-.441q.168-.245.364-.525A4.579,4.579,0,0,0,3.57-3.36a1.821,1.821,0,0,0,.161-.42,2.262,2.262,0,0,0-.154-.329q-.1-.175-.2-.189a.781.781,0,0,0-.469.238,4.067,4.067,0,0,0-.6.686,1.637,1.637,0,0,0-.14.224q-.084.154-.161.287t-.105.175a1.285,1.285,0,0,0-.119.259q-.077.2-.133.406a1.27,1.27,0,0,0-.056.287.872.872,0,0,0,.021.182.162.162,0,0,0,.133.126A.542.542,0,0,0,2.107-1.54ZM7.455,2.716a1.642,1.642,0,0,1-.476-.063,1.9,1.9,0,0,1-.63-.287,2.914,2.914,0,0,1-.518-.532.757.757,0,0,1-.147-.371,1.882,1.882,0,0,1,.007-.287q.07-.308.3-.294a.575.575,0,0,1,.357.126,3.711,3.711,0,0,1,.3.273,3.561,3.561,0,0,0,.322.287.4.4,0,0,0,.273.112.691.691,0,0,0,.462-.231A2.319,2.319,0,0,0,8.071.812Q8.183.5,8.246.28t.133-.49q.07-.266.168-.714.07-.322.105-.455a.94.94,0,0,0,.035-.168q0-.035-.014-.035l-.1.056A2.277,2.277,0,0,1,8.3-1.4q-.175.07-.385.14-.392.126-.784.217a1.166,1.166,0,0,1-.6.021.7.7,0,0,1-.336-.28,1.077,1.077,0,0,1-.161-.42,1.492,1.492,0,0,1-.021-.364,3.5,3.5,0,0,1,.126-.364q.1-.252.224-.532t.238-.49q.112-.21.182-.224a.27.27,0,0,0,.105-.119.335.335,0,0,0,.049-.147.591.591,0,0,1,.119-.182,4.205,4.205,0,0,1,.623-.49,5.33,5.33,0,0,1,.938-.735,1.852,1.852,0,0,1,.77-.273,1.337,1.337,0,0,0,.189.014h.091l.154.042a2.044,2.044,0,0,1,.308.112,1.029,1.029,0,0,1,.392.329,3.093,3.093,0,0,1,.364.567,1.454,1.454,0,0,1,.168.56,1.84,1.84,0,0,1-.14.616q-.126.308-.238.294a.36.36,0,0,0-.245.077.59.59,0,0,0-.2.343,1.06,1.06,0,0,0-.1.175A2.215,2.215,0,0,1,10-2.282l-.07.343q-.056.273-.133.6t-.133.6q-.056.273-.07.357-.014.056-.07.259T9.394.336Q9.317.588,9.233.8a2,2,0,0,1-.224.707,3.622,3.622,0,0,1-.364.539,2.1,2.1,0,0,1-.637.5A1.859,1.859,0,0,1,7.455,2.716Zm-.266-4.9q.042.112.231.084a4.228,4.228,0,0,0,.525-.126q.406-.168.609-.266a.82.82,0,0,0,.315-.252q.084-.112.161-.224t.147-.2q.028-.028.091-.1t.105-.126q.084-.056.147-.1l.119-.091a.27.27,0,0,0,.126-.133.3.3,0,0,0,.028-.217.778.778,0,0,0-.126-.273.761.761,0,0,0-.308-.273q-.182-.112-.427.154a9.027,9.027,0,0,1-.777.714q-.308.336-.546.623a3.336,3.336,0,0,0-.35.49A.4.4,0,0,0,7.189-2.184ZM12.257-.126A1.321,1.321,0,0,1,11.5-.854,2.723,2.723,0,0,1,11.389-2.2a1.643,1.643,0,0,0-.028-.581.766.766,0,0,0-.21-.287,1.564,1.564,0,0,0-.2-.189q-.154-.133-.14-.2a.509.509,0,0,1,.042-.245q.056-.147.1-.161.1-.042.2-.1a.183.183,0,0,1,.161-.028.411.411,0,0,1,.175.07q.119.07.119.126.056.1.175-.084a4.7,4.7,0,0,0,.259-.462,2.092,2.092,0,0,1,.35-.42,4.945,4.945,0,0,1,.427-.357,3.312,3.312,0,0,1,.371-.245q.07-.028.273-.084a3.827,3.827,0,0,1,.427-.091,1.318,1.318,0,0,1,.336-.021,1.042,1.042,0,0,1,.532.21,2.675,2.675,0,0,1,.434.364.626.626,0,0,1,.245.385,1.873,1.873,0,0,1,.049.539,1.192,1.192,0,0,1-.112.476,1.147,1.147,0,0,1-.294.392,5.615,5.615,0,0,1-.553.483,2.3,2.3,0,0,1-.511.315,3.1,3.1,0,0,1-.434.063,2.62,2.62,0,0,1-.469,0,.954.954,0,0,1-.3-.063.109.109,0,0,0-.161.035,1.335,1.335,0,0,0-.105.483.98.98,0,0,0,.007.266.672.672,0,0,0,.049.168.862.862,0,0,0,.2.245.528.528,0,0,0,.364.049.887.887,0,0,0,.539-.329,4.664,4.664,0,0,1,.5-.483.335.335,0,0,1,.245-.133,1.058,1.058,0,0,1,.455.035.325.325,0,0,1,.147.308,1.566,1.566,0,0,1-.231.616,1.131,1.131,0,0,1-.231.287q-.189.189-.406.378a2.708,2.708,0,0,1-.357.273A1.624,1.624,0,0,1,13,.014,2.33,2.33,0,0,1,12.257-.126Zm1.036-3.15a3.69,3.69,0,0,0,.357-.112.924.924,0,0,0,.287-.182,2.447,2.447,0,0,0,.322-.378.979.979,0,0,0,.063-.266q.007-.112-.021-.14a.243.243,0,0,0-.245-.077.883.883,0,0,0-.287.147,1.458,1.458,0,0,0-.273.175,3.294,3.294,0,0,0-.336.294,2.135,2.135,0,0,0-.252.294q-.091.133-.035.161-.028.056.161.07T13.293-3.276Zm3.43,2.814A.966.966,0,0,1,16.3-.805a.967.967,0,0,1-.161-.567,3.361,3.361,0,0,1,.056-.476q.056-.336.154-.756t.2-.784a1.709,1.709,0,0,0,.189-.5,2.479,2.479,0,0,0,.049-.308q.028-.168.1-.448t.147-.511a1.1,1.1,0,0,1,.1-.259.376.376,0,0,1,.238-.084.918.918,0,0,1,.336.035.32.32,0,0,1,.224.189.8.8,0,0,1,.175.5,2.059,2.059,0,0,1-.133.784q-.126.28-.252.658t-.217.693a3.459,3.459,0,0,0-.105.427l-.5-.014a6.057,6.057,0,0,0,.448-.469q.21-.245.308-.385.238-.322.413-.539t.455-.525a1.634,1.634,0,0,1,.6-.455,1.426,1.426,0,0,1,.476-.133,1,1,0,0,1,.553.315,1.288,1.288,0,0,1,.3.763,3.607,3.607,0,0,1-.035.462l-.035.266.231-.28a5.972,5.972,0,0,1,.623-.63,1.15,1.15,0,0,1,.518-.231.5.5,0,0,1,.448.175,1.162,1.162,0,0,1,.532.686A2.647,2.647,0,0,1,22.841-2.1a1.8,1.8,0,0,0,.007.581q.049.217.1.385a.366.366,0,0,1,.056.441q-.126.189-.224.189a2.359,2.359,0,0,1-.42-.056,1.572,1.572,0,0,1-.511-.2.426.426,0,0,1-.231-.378V-2a3.544,3.544,0,0,0-.021-.455.287.287,0,0,0-.077-.189q-.154-.084-.378.126a3.506,3.506,0,0,0-.483.595q-.259.385-.553.861a1.549,1.549,0,0,1-.434.525.3.3,0,0,1-.322-.007.58.58,0,0,1-.385-.273.6.6,0,0,1-.021-.4q.07-.238.175-.616t.2-.735q.1-.357.126-.525a.147.147,0,0,0-.189-.077.865.865,0,0,0-.273.133l-.357.238a1.788,1.788,0,0,0-.441.532q-.168.266-.378.581t-.385.567a2.035,2.035,0,0,1-.287.35.77.77,0,0,1-.182.315A.228.228,0,0,1,16.723-.462Zm9.94.182a2.1,2.1,0,0,1-.889.273A1.95,1.95,0,0,1,24.9-.133a1.535,1.535,0,0,1-.658-.483,1.95,1.95,0,0,1-.266-.581,2.653,2.653,0,0,1-.042-1.085,4.3,4.3,0,0,1,.4-1.3,4.726,4.726,0,0,1,.777-1.162,2.406,2.406,0,0,1,1.008-.686,2.393,2.393,0,0,1,.4-.105,2.219,2.219,0,0,1,.539-.007,1.919,1.919,0,0,1,.574.161,1.015,1.015,0,0,1,.364.259,1.154,1.154,0,0,1,.294.434,1.042,1.042,0,0,1,.056.406,2.579,2.579,0,0,1-.4.966,1.982,1.982,0,0,1-.917.77,1.9,1.9,0,0,1-.56.126,3.308,3.308,0,0,1-.882-.084q-.336-.07-.441.07a.927.927,0,0,0-.091.546,1.357,1.357,0,0,0,.119.441.5.5,0,0,0,.343.259,1.017,1.017,0,0,0,.462.007q.14-.049.35-.147a2.29,2.29,0,0,0,.217-.154l.21-.168a1.681,1.681,0,0,1,.175-.126.33.33,0,0,1,.14-.07.712.712,0,0,1,.14-.014.459.459,0,0,1,.294.168.79.79,0,0,1,.182.294.638.638,0,0,1-.14.315,2.661,2.661,0,0,1-.371.42A2.991,2.991,0,0,1,26.663-.28ZM26.481-3.4a1.414,1.414,0,0,0,.287-.2,2.872,2.872,0,0,0,.343-.329.5.5,0,0,0,.154-.273q0-.154-.2-.266a.744.744,0,0,0-.525-.042.735.735,0,0,0-.266.154,3.461,3.461,0,0,0-.308.287,3.653,3.653,0,0,0-.266.308,1.613,1.613,0,0,0-.154.231.415.415,0,0,0,.224.112,1.529,1.529,0,0,0,.371.042A1.783,1.783,0,0,0,26.481-3.4ZM33.439-.336a1.385,1.385,0,0,1-.511-.133A.766.766,0,0,1,32.6-.9a1.722,1.722,0,0,1-.049-.469q.007-.245.035-.476a3.382,3.382,0,0,0,.028-.4v-.266q-.028-.21-.1-.259t-.259.021a5.023,5.023,0,0,0-.637.371q-.343.231-.714.532t-.763.637a5.76,5.76,0,0,0-.455.546.4.4,0,0,1-.3.21.225.225,0,0,1-.238-.028q-.126-.084-.266-.2-.1-.112-.231-.287a2.021,2.021,0,0,1-.161-.231,2.158,2.158,0,0,1,.035-.406,2.144,2.144,0,0,1,.112-.378q.077-.2.189-.448.056-.1.1-.2t.119-.231A4.151,4.151,0,0,1,29.2-3.3q.1-.252.2-.476.154-.364.238-.63a4.7,4.7,0,0,0,.14-.574.1.1,0,0,1,.014-.084.125.125,0,0,1,.084-.07h.028a.527.527,0,0,1,.371-.021A.92.92,0,0,1,30.7-5a.787.787,0,0,1,.28.658,2.375,2.375,0,0,1-.42,1.064q-.1.224-.2.413a.7.7,0,0,0-.1.259l.112-.084.266-.2q.154-.119.266-.189.07-.07.308-.259t.518-.4q.28-.21.448-.322a2.812,2.812,0,0,1,.392-.231,1.068,1.068,0,0,1,.294-.119.825.825,0,0,1,.343.1,2.212,2.212,0,0,1,.378.231.505.505,0,0,1,.2.245,1.013,1.013,0,0,1-.014.147,1.073,1.073,0,0,0-.014.161q-.014.224-.007.539t.007.63a2.622,2.622,0,0,1-.056.567l.014.021a.274.274,0,0,1,.028.063.053.053,0,0,0-.007.049l.007.035q.028.1.063.2t.091.217q.056.119.126.3a.557.557,0,0,1-.2.357A.838.838,0,0,1,33.439-.336Zm3.444.42a1.285,1.285,0,0,1-.392-.2q-.2-.14-.406-.322a1.682,1.682,0,0,1-.238-.413A1.4,1.4,0,0,1,35.77-1.3q-.007-.259-.007-.665a2.559,2.559,0,0,1,.063-.476q.063-.308.14-.644t.147-.6q.07-.259.084-.343a.151.151,0,0,0-.14-.21,2.17,2.17,0,0,0-.4-.021.6.6,0,0,1-.287-.035q-.056-.014-.056-.147v-.133a.077.077,0,0,0-.056-.077.2.2,0,0,1-.1-.091q-.028-.056.07-.21a.374.374,0,0,1,.252-.182,3.059,3.059,0,0,1,.378-.049,2.528,2.528,0,0,0,.511-.1.8.8,0,0,0,.4-.245q.126-.308.28-.665t.294-.63a2.6,2.6,0,0,1,.2-.343.874.874,0,0,1,.49-.105.49.49,0,0,1,.392.245.816.816,0,0,0,.119.14.14.14,0,0,1,.042.126,1.071,1.071,0,0,1-.112.3q-.105.217-.343.665-.07.14-.126.245l-.056.105a.746.746,0,0,0,.168.014q.112,0,.28-.014t.336-.049a1.041,1.041,0,0,1,.322.007.589.589,0,0,1,.476.182.751.751,0,0,1,.168.462.264.264,0,0,1-.112.266.866.866,0,0,1-.518.112q-.126,0-.364.014l-.49.028q-.252.014-.427.035t-.175.049a.693.693,0,0,0-.133.217,4.18,4.18,0,0,0-.182.455q-.091.266-.161.5a8.536,8.536,0,0,0-.14.924,3.962,3.962,0,0,0-.007.777.834.834,0,0,0,.161.469q.126.126.385-.007a2.771,2.771,0,0,0,.483-.315q.252-.21.434-.133a.4.4,0,0,1,.231.308.64.64,0,0,1-.133.5,1.378,1.378,0,0,1-.476.448,2.277,2.277,0,0,1-.63.259A1.087,1.087,0,0,1,36.883.084Zm5.656.378q-.252-.14-.273-.308a1.271,1.271,0,0,1,.189-.588q.21-.42.658-1.3a6.973,6.973,0,0,0,.455-.987,2.645,2.645,0,0,0,.133-.511q.014-.154.014-.2a.243.243,0,0,1,.028-.2.439.439,0,0,1,.182-.133,3.256,3.256,0,0,1,.322-.252,1.331,1.331,0,0,0,.392-.434q.126-.294.287-.6t.427-.777q.266-.469.714-1.225.28-.49.665-1.106t.763-1.12a1.415,1.415,0,0,1,.322-.308.555.555,0,0,1,.294-.112,1.319,1.319,0,0,1,.616.161,2.223,2.223,0,0,1,.546.4,1.4,1.4,0,0,1,.322.448.97.97,0,0,1,.056.476q-.014.364-.056.882T49.5-6.23q-.042.574-.126,1.358T49.21-3.234q-.077.854-.119,1.645a11.269,11.269,0,0,0,0,1.379,1.014,1.014,0,0,1,0,.238,1.53,1.53,0,0,0-.014.182.523.523,0,0,1-.364.077A1.968,1.968,0,0,1,48.167.2q-.266-.084-.294-.21a.3.3,0,0,1-.056-.07,1.125,1.125,0,0,1,0-.273q.014-.245.042-.9l.07-2.142-.182.014q-.126,0-.455.028t-.714.077q-.385.049-.707.1a3.109,3.109,0,0,0-.448.091.484.484,0,0,0-.3.168,1.955,1.955,0,0,0-.329.434,1.466,1.466,0,0,1-.2.413.748.748,0,0,0-.147.287.612.612,0,0,0-.161.168l-.063.1a1.8,1.8,0,0,1-.119.413q-.119.329-.308.728a5.492,5.492,0,0,1-.385.693L43.029.84Zm3.346-4.816.154-.028q.154-.028.371-.063A2.449,2.449,0,0,1,46.8-4.48q.322-.084.539-.126a2.652,2.652,0,0,1,.357-.049.453.453,0,0,1,.224.035.23.23,0,0,0,.1.084l.049.014a2.213,2.213,0,0,0,.056-.294q.042-.266.1-.658t.112-.819q.056-.427.1-.8t.056-.581a2.689,2.689,0,0,0-.014-.483l-.028-.217q-.084,0-.315.3a9.016,9.016,0,0,0-.532.8q-.3.5-.6,1.071a2.946,2.946,0,0,1-.259.42q-.119.154-.189.154a2.015,2.015,0,0,0-.147.217q-.119.189-.252.42t-.224.42Q45.843-4.382,45.885-4.354ZM49.637,3.4a1.491,1.491,0,0,1-.3-.21,2.932,2.932,0,0,1-.364-.357.557.557,0,0,1-.161-.273,3.416,3.416,0,0,1,.07-.441q.07-.357.189-.868T49.336.217q.147-.525.3-.931l.189-.469a8.587,8.587,0,0,0,.315-.973q.112-.364.294-.826t.378-.931q.2-.469.322-.833t.28-.735q.154-.371.168-.427a.281.281,0,0,1,.161-.147,2.791,2.791,0,0,1,.273-.112L52.2-6.23a.377.377,0,0,1,.434.21.53.53,0,0,1,.035.343,1.919,1.919,0,0,1-.147.469l-.1.28.5-.112q.126,0,.35.014L53.718-5a1.371,1.371,0,0,1,.3.042.8.8,0,0,1,.469.126,1,1,0,0,1,.231.294q.07.07.168.189A.46.46,0,0,1,55-4.116a1.123,1.123,0,0,1-.035.56,3.3,3.3,0,0,1-.266.651,3.4,3.4,0,0,1-.406.6,2.2,2.2,0,0,1-.441.413,2.122,2.122,0,0,0-.252.119l-.112.063q-.014.07-.287.238a4.4,4.4,0,0,1-.63.315,2.8,2.8,0,0,1-.637.189q-.1.014-.28.028a.493.493,0,0,1-.28-.042,1.432,1.432,0,0,0-.21-.028.049.049,0,0,0-.056.056q-.014.028-.2.448A8.522,8.522,0,0,0,50.533.658Q50.267,1.47,50.1,2t-.259.819q-.091.294-.133.427A.491.491,0,0,1,49.637,3.4Zm1.806-5.586q.042.084.294.049a2.579,2.579,0,0,0,.574-.161,2.961,2.961,0,0,0,.581-.3.641.641,0,0,0,.3-.371q.308-.35.434-.511t-.014-.259a.472.472,0,0,0-.441-.21,2.488,2.488,0,0,0-.9.35,1.341,1.341,0,0,0-.322.147.418.418,0,0,0-.133.189q-.049.126-.175.406a4.453,4.453,0,0,0-.168.462A.5.5,0,0,0,51.443-2.184Zm3.542,5.446q-.056,0-.161.007a.187.187,0,0,1-.175-.119,2.222,2.222,0,0,1-.168-.273.847.847,0,0,1-.042-.567,4.542,4.542,0,0,0,.112-.469,2.127,2.127,0,0,0,.042-.343,1.273,1.273,0,0,1,.035-.217,1.25,1.25,0,0,0,.035-.231.972.972,0,0,0,.112-.308,1.69,1.69,0,0,0,.042-.35.4.4,0,0,1,.168-.308,1.038,1.038,0,0,1,.049-.28,1.027,1.027,0,0,0,.049-.224q.042-.2.189-.693t.364-1.127q.217-.63.427-1.232t.378-1.022q.168-.392.28-.728a1.782,1.782,0,0,0,.112-.476.141.141,0,0,1,.028-.091q.028-.035.126-.147a.408.408,0,0,1,.371-.105.864.864,0,0,1,.385.147,1.623,1.623,0,0,1,.161.329.991.991,0,0,1-.007.455.775.775,0,0,1-.1.385,2.8,2.8,0,0,1-.175.28q-.077.105-.049.091a2.527,2.527,0,0,1,1.113-.413,1.42,1.42,0,0,1,.84.168,1.361,1.361,0,0,1,.525.553,1.614,1.614,0,0,1,.182.756,1.291,1.291,0,0,1-.112.448,4.2,4.2,0,0,1-.252.525,1.717,1.717,0,0,1-.224.329q-.056,0-.112.091t-.112.2a1.706,1.706,0,0,1-.371.315,2.728,2.728,0,0,1-.525.28.6.6,0,0,1-.378.063l-.035.028a.119.119,0,0,0-.035.1q0,.028-.2.112a3.339,3.339,0,0,1-.462.154,1.936,1.936,0,0,1-.49.07.629.629,0,0,1-.42-.112.486.486,0,0,0-.063.084.193.193,0,0,0-.035.1.931.931,0,0,1-.063.266A1.943,1.943,0,0,1,56.2.091q-.084.147-.154.147L56.021.28q-.028.042.028.112l-.007.161a.552.552,0,0,1-.077.273,2.006,2.006,0,0,1-.042.336,1.343,1.343,0,0,1-.1.336,1.124,1.124,0,0,1-.049.329q-.049.161-.1.161t-.07.175q-.014.161-.014.231A1,1,0,0,1,55.363,3Q55.153,3.262,54.985,3.262Zm1.792-4.9a1.572,1.572,0,0,0,.406-.1,6.243,6.243,0,0,0,.616-.245,2.2,2.2,0,0,0,.5-.3,3.255,3.255,0,0,0,.567-.63.593.593,0,0,0-.035-.686.322.322,0,0,0-.357-.161,1.341,1.341,0,0,0-.539.231,4.484,4.484,0,0,0-.6.49,2.44,2.44,0,0,0-.308.42,3.552,3.552,0,0,0-.231.462,1.385,1.385,0,0,0-.1.371Q56.679-1.638,56.777-1.638Z" transform="translate(433.048 375.028)" fill="#222"/>
  </g>
</svg>
