<svg xmlns="http://www.w3.org/2000/svg" width="160" height="192.733" viewBox="0 0 160 192.733">
  <g id="Group_589" data-name="Group 589" transform="translate(-108 -261)">
    <g id="day" transform="translate(108 236.145)">
      <path id="Path_211" data-name="Path 211" d="M156.758,202.754a53.36,53.36,0,0,1-1.016-23.73,58.512,58.512,0,0,0,0-20.988,53.365,53.365,0,0,1,1.016-23.73l3.057-11.408a5.285,5.285,0,0,0-6.473-6.473l-10.279,2.754a55.09,55.09,0,0,1-28.521-.1c-9.9-2.652-21.453-4.022-34.542-4.022s-24.638,1.37-34.542,4.022a55.084,55.084,0,0,1-28.521.1L6.659,116.425A5.285,5.285,0,0,0,.186,122.9l3.057,11.408a53.36,53.36,0,0,1,1.016,23.73,58.511,58.511,0,0,0,0,20.988,53.365,53.365,0,0,1-1.016,23.73L.186,214.162a5.285,5.285,0,0,0,6.473,6.473l10.279-2.754a55.091,55.091,0,0,1,28.521.1c9.9,2.653,21.453,4.023,34.542,4.023s24.638-1.37,34.542-4.022a55.084,55.084,0,0,1,28.521-.1l10.279,2.754a5.285,5.285,0,0,0,6.473-6.473Z" transform="translate(0 -62.012)" fill="#e5ecf1"/>
      <path id="Path_212" data-name="Path 212" d="M156.758,205.362a53.36,53.36,0,0,1-1.016-23.73,58.511,58.511,0,0,0,0-20.988,53.365,53.365,0,0,1,1.016-23.73l3.057-11.408a5.285,5.285,0,0,0-6.473-6.473l-10.279,2.754a53.73,53.73,0,0,1-11.286,1.755l-.092.346a53.36,53.36,0,0,0-1.016,23.73,58.511,58.511,0,0,1,0,20.988,53.365,53.365,0,0,0,1.016,23.73l3.057,11.408a5.285,5.285,0,0,1-6.473,6.473l-10.279-2.754a55.09,55.09,0,0,0-28.521.1c-9.9,2.652-21.453,4.022-34.542,4.022s-24.638-1.37-34.542-4.022A56.057,56.057,0,0,0,3.15,205.708L.186,216.77a5.285,5.285,0,0,0,6.473,6.473l10.279-2.754a55.09,55.09,0,0,1,28.521.1c9.9,2.652,21.453,4.023,34.542,4.023s24.638-1.37,34.542-4.022a55.084,55.084,0,0,1,28.521-.1l10.279,2.754a5.285,5.285,0,0,0,6.473-6.473Z" transform="translate(0 -64.62)" fill="#d6e4ea"/>
      <path id="Path_213" data-name="Path 213" d="M190.1,205.716H169.148a24.394,24.394,0,0,0-24.394,24.394v18.162h69.74V230.11A24.394,24.394,0,0,0,190.1,205.716Z" transform="translate(-99.518 -124.342)" fill="#a64c31"/>
      <path id="Path_214" data-name="Path 214" d="M266.32,205.716H256.078a24.71,24.71,0,0,1,24.71,24.709v17.846h10.242V230.425A24.71,24.71,0,0,0,266.32,205.716Z" transform="translate(-176.054 -124.342)" fill="#8a3e25"/>
      <path id="Path_215" data-name="Path 215" d="M200.236,290.157c-.2-.014-.386-.018-.573-.017V279.594a9.7,9.7,0,0,0-9.7-9.7H148.693a9.7,9.7,0,0,0-9.7,9.7v10.561a6.959,6.959,0,0,0-1,0c-4.947.364-8.773,3.164-8.34,9.033.42,5.707,4.712,12.211,9.5,12.232a29.452,29.452,0,0,0,29.288,26.364h1.77A29.452,29.452,0,0,0,199.505,311.4c4.611-.387,8.664-6.675,9.072-12.212C209.009,293.321,205.183,290.521,200.236,290.157Z" transform="translate(-89.118 -168.466)" fill="#ffcbbe"/>
      <path id="Path_216" data-name="Path 216" d="M254.529,290.157c-.2-.014-.386-.018-.573-.017V279.594a9.7,9.7,0,0,0-9.7-9.7h-3.534a9.657,9.657,0,0,1,2.293,6.26V304.9A29.449,29.449,0,0,1,213.57,334.35H211.8a29.767,29.767,0,0,1-3.2-.174,29.315,29.315,0,0,0,14.139,3.611h1.77A29.452,29.452,0,0,0,253.8,311.4c4.611-.387,8.664-6.675,9.072-12.213.432-5.869-3.394-8.669-8.34-9.033Z" transform="translate(-143.411 -168.466)" fill="#fdad9d"/>
      <path id="Path_217" data-name="Path 217" d="M234.935,408.863a13.31,13.31,0,0,1-8.742-3.153,2.414,2.414,0,0,1,3.162-3.65,8.873,8.873,0,0,0,11.16,0,2.414,2.414,0,0,1,3.162,3.65A13.309,13.309,0,0,1,234.935,408.863Z" transform="translate(-154.935 -258.923)" fill="#a44f3e"/>
      <path id="Path_218" data-name="Path 218" d="M284.411,355.954a7.515,7.515,0,0,1-7.207-5.3,2.414,2.414,0,0,1,4.609-1.437,2.722,2.722,0,0,0,5.2,0,2.414,2.414,0,0,1,4.609,1.437A7.513,7.513,0,0,1,284.411,355.954Z" transform="translate(-190.502 -221.832)" fill="#8a3e25"/>
      <path id="Path_219" data-name="Path 219" d="M196.742,355.954a7.515,7.515,0,0,1-7.207-5.3,2.414,2.414,0,0,1,4.609-1.437,2.722,2.722,0,0,0,5.2,0,2.414,2.414,0,0,1,4.609,1.437,7.513,7.513,0,0,1-7.207,5.3Z" transform="translate(-130.23 -221.832)" fill="#8a3e25"/>
      <g id="Group_588" data-name="Group 588" transform="translate(112.297 24.855)">
        <path id="Path_220" data-name="Path 220" d="M395.923,169.766h-9.249c-1.52,0-2.749-.776-2.749-2.232s1.229-2.231,2.749-2.231h13.971a2.173,2.173,0,0,1,2.458,2.426,2.957,2.957,0,0,1-.744,1.908l-12.192,14.488h10.349c1.52,0,2.749.776,2.749,2.232s-1.229,2.231-2.749,2.231H386.124c-1.94,0-3.072-.647-3.072-2.62a3.091,3.091,0,0,1,.873-2.037Z" transform="translate(-375.645 -121.413)" fill="#8c9ba6"/>
        <path id="Path_221" data-name="Path 221" d="M423.409,59.621h-6.389a1.727,1.727,0,1,1,0-3.452h10.508a1.736,1.736,0,0,1,1.817,1.938,2.321,2.321,0,0,1-.7,1.484l-8.176,8.963h7.268a1.727,1.727,0,1,1,0,3.452H416.474a1.776,1.776,0,0,1-1.968-1.726,2.274,2.274,0,0,1,.575-1.605Z" transform="translate(-397.27 -46.383)" fill="#8c9ba6"/>
        <path id="Path_222" data-name="Path 222" d="M366.012,27.438h-4.781a1.292,1.292,0,1,1,0-2.583h7.862a1.3,1.3,0,0,1,1.36,1.45,1.736,1.736,0,0,1-.521,1.11l-6.118,6.707h5.438a1.292,1.292,0,1,1,0,2.583h-8.429a1.329,1.329,0,0,1-1.473-1.292,1.7,1.7,0,0,1,.431-1.2Z" transform="translate(-359.35 -24.855)" fill="#8c9ba6"/>
      </g>
    </g>
    <path id="Cs_309" data-name="Cs 309" d="M4.375,0h6.8C18.56,0,22.9-4.58,22.9-12.39S18.542-24.661,11.177-24.661h-6.8a2.072,2.072,0,0,0-2.2,2.29V-2.29A2.072,2.072,0,0,0,4.375,0Zm2.2-3.726V-20.935h4.136c4.922,0,7.69,3.042,7.69,8.562,0,5.623-2.734,8.647-7.69,8.647ZM31.223.291A6.412,6.412,0,0,0,36.88-2.888h.085v1.265A1.909,1.909,0,0,0,39,.342a1.965,1.965,0,0,0,2.068-2.136V-12.476c0-3.64-2.922-6.016-7.417-6.016-3.469,0-6.272,1.333-7.195,3.435a2.655,2.655,0,0,0-.291,1.162,1.674,1.674,0,0,0,1.794,1.709,2.046,2.046,0,0,0,1.726-.854,4.12,4.12,0,0,1,3.794-2.119c2.1,0,3.384,1.094,3.384,2.991v1.3l-4.8.273c-4.409.273-6.887,2.2-6.887,5.417C25.173-1.914,27.72.291,31.223.291Zm1.3-3.213c-1.846,0-3.093-.94-3.093-2.427,0-1.436,1.179-2.358,3.23-2.5l4.2-.256v1.384C36.863-4.529,34.915-2.922,32.522-2.922ZM47.031,6.733c3.623,0,5.5-1.572,7.144-6.084l5.964-15.962a3.811,3.811,0,0,0,.239-1.23,1.924,1.924,0,0,0-2.068-1.931,1.962,1.962,0,0,0-2.051,1.658L51.936-3.623h-.068L47.544-16.8c-.359-1.2-.957-1.675-2.034-1.675a2.027,2.027,0,0,0-2.187,1.982,3.8,3.8,0,0,0,.239,1.213l5.93,15.6-.308.889A2.759,2.759,0,0,1,46.6,3.3c-.393,0-.564-.017-.923-.017a1.424,1.424,0,0,0-1.606,1.436C44.075,6.016,45.117,6.733,47.031,6.733ZM81.006.41C88.184.41,92.7-4.478,92.7-12.322S88.184-25.071,81.006-25.071c-7.195,0-11.707,4.9-11.707,12.749S73.811.41,81.006.41Zm0-3.76c-4.409,0-7.195-3.486-7.195-8.972,0-5.5,2.786-8.989,7.195-8.989,4.392,0,7.195,3.486,7.195,8.989C88.2-6.836,85.4-3.35,81.006-3.35ZM99.087.342a2,2,0,0,0,2.119-2.222V-14.834h2.222a1.516,1.516,0,0,0,1.624-1.624,1.529,1.529,0,0,0-1.624-1.606h-2.29v-1.418c0-1.521.632-2.2,2.188-2.239a4.676,4.676,0,0,0,.94-.12,1.168,1.168,0,0,0,.94-1.23c0-1.06-1.008-1.777-3.264-1.777-3.264.017-4.99,1.641-4.99,5.178v1.606H95.823a1.534,1.534,0,0,0-1.641,1.606,1.521,1.521,0,0,0,1.641,1.624h1.128V-1.88A2.009,2.009,0,0,0,99.087.342Zm11.792,0A2,2,0,0,0,113-1.88V-14.834h2.222a1.516,1.516,0,0,0,1.624-1.624,1.529,1.529,0,0,0-1.624-1.606h-2.29v-1.418c0-1.521.632-2.2,2.188-2.239a4.676,4.676,0,0,0,.94-.12,1.168,1.168,0,0,0,.94-1.23c0-1.06-1.008-1.777-3.264-1.777-3.264.017-4.99,1.641-4.99,5.178v1.606h-1.128a1.534,1.534,0,0,0-1.641,1.606,1.521,1.521,0,0,0,1.641,1.624h1.128V-1.88A2.009,2.009,0,0,0,110.879.342Z" transform="translate(128.83 447)" fill="#8c9ba6"/>
  </g>
</svg>
